<?xml version="1.0" encoding="UTF-8" standalone="no"?>
<!-- Generator: Adobe Illustrator 24.1.2, SVG Export Plug-In . SVG Version: 6.00 Build 0)  -->

<svg
   xmlns:dc="http://purl.org/dc/elements/1.1/"
   xmlns:cc="http://creativecommons.org/ns#"
   xmlns:rdf="http://www.w3.org/1999/02/22-rdf-syntax-ns#"
   xmlns:svg="http://www.w3.org/2000/svg"
   xmlns="http://www.w3.org/2000/svg"
   xmlns:sodipodi="http://sodipodi.sourceforge.net/DTD/sodipodi-0.dtd"
   xmlns:inkscape="http://www.inkscape.org/namespaces/inkscape"
   version="1.1"
   id="Layer_2"
   x="0px"
   y="0px"
   viewBox="0 0 128 128"
   style="enable-background:new 0 0 128 128;"
   xml:space="preserve"
   sodipodi:docname="emoji_u1f47a.svg"
   inkscape:version="0.92.5 (2060ec1f9f, 2020-04-08)"><metadata
   id="metadata61"><rdf:RDF><cc:Work
       rdf:about=""><dc:format>image/svg+xml</dc:format><dc:type
         rdf:resource="http://purl.org/dc/dcmitype/StillImage" /></cc:Work></rdf:RDF></metadata><defs
   id="defs59" /><sodipodi:namedview
   pagecolor="#ffffff"
   bordercolor="#666666"
   borderopacity="1"
   objecttolerance="10"
   gridtolerance="10"
   guidetolerance="10"
   inkscape:pageopacity="0"
   inkscape:pageshadow="2"
   inkscape:window-width="1920"
   inkscape:window-height="1080"
   id="namedview57"
   showgrid="false"
   inkscape:zoom="1.84375"
   inkscape:cx="-31.457627"
   inkscape:cy="64"
   inkscape:window-x="0"
   inkscape:window-y="0"
   inkscape:window-maximized="0"
   inkscape:current-layer="Layer_2" />
<g
   id="g54"
   transform="matrix(-1,0,0,1,133.57432,0)">
	<path
   style="fill:#f04e3e"
   d="m 9.04,75.5 c 0,-9.6 -2.91,-54.6 4.71,-63.46 12.86,-14.96 28.22,-4.46 45.31,-4.46 17.09,0 29.33,-9.15 38.27,4.17 7.51,11.19 4.58,52.57 4.58,63.75 0,31.31 -20.79,48.5 -46.43,48.5 C 29.84,124 9.04,107.46 9.04,75.5 Z"
   id="path2"
   inkscape:connector-curvature="0" />
	<path
   style="fill:#fff8e1"
   d="m 66.69,99.64 c 11.7,0 17.16,6.89 19.55,9.46 0.89,0.96 1.81,0.58 1.81,0.58 0,-5.66 -6.77,-21.25 -21.36,-21.25 -16.56,0 -26.78,9.48 -29.64,21.25 -0.78,3.22 14.13,-10.04 29.64,-10.04 z"
   id="path4"
   inkscape:connector-curvature="0" />
	<path
   style="fill:#b71c1c"
   d="m 94.64,31.44 c -7.94,-2.95 -14.61,3.33 -17.19,5.93 -3.22,3.25 -10.15,8.49 -12.57,1.41 -0.72,-2.12 -0.07,-4.54 -1.15,-6.5 -0.23,-0.41 -0.53,-0.81 -0.95,-1.01 -0.42,-0.2 -0.99,-0.17 -1.3,0.18 -0.32,0.37 -0.28,0.92 -0.22,1.4 0.32,2.49 0.26,4.47 -1.26,6.61 -1.68,2.35 -4.81,3.72 -7.58,2.89 -2.14,-0.65 -3.2,-2.2 -4.54,-3.8 C 46.4,36.79 44.12,35.16 42.27,33.79 37.1,29.97 33.64,28.83 24.11,31.71 18.25,33.48 15.26,30.42 15.43,25.53 15.6,20.55 16.96,15.27 19.23,11.41 20.88,8.59 25.22,5.36 28.24,4.15 21.47,4.47 17.49,6.08 13.05,13 6.74,22.83 9.04,67.9 9.04,77.5 c 0,31.97 20.79,46.5 46.43,46.5 5.82,0 11.71,-0.71 18.56,-3.36 -0.89,0.02 -40.84,6 -49.54,-17.95 C 21.87,95.47 21.9,87.53 21.43,80 16.32,76.84 12.95,60.44 20.75,56.45 c 3.89,-1.99 8.23,-2.05 12.99,2.18 6.49,5.78 12.8,4.14 17.63,2.36 2.99,-1.1 5.2,-3.08 6.77,-3.84 2.54,-1.24 4.6,-0.45 5.5,0.34 1.49,1.32 2.74,8.11 22.46,7.21 10.41,-0.47 16.44,-7.32 16.44,-7.32 0.22,-9.15 0.41,-22.86 -7.9,-25.94 z m -17.51,8.04 0.98,0.49 c -0.01,0.18 -0.02,0.36 -0.03,0.53 -0.32,-0.44 -0.64,-0.82 -0.95,-1.02 z"
   id="path6"
   inkscape:connector-curvature="0" />
	<path
   style="fill:#ffecb3"
   d="m 27.37,41.56 c -0.7,-3.37 1.94,-6.53 5.38,-6.39 3.63,0.15 8.41,0.79 12.94,2.76 5.59,2.44 10.08,8.69 8.3,15.27 -1.12,4.13 -3.75,7.43 -11.83,6.64 C 35.01,59.15 29.28,50.73 27.37,41.56 Z"
   id="path8"
   inkscape:connector-curvature="0" />
	<g
   id="g12">
		<path
   style="fill:#281010"
   d="m 90.89,72.49 c 0.01,1.19 -0.1,2.73 -0.52,4.58 0,0 4.59,1.39 9.14,-10.54 0.17,-0.46 0.52,-0.81 0.9,-0.77 0.75,0.08 1.2,1.21 1.42,2.2 1.87,8.23 -0.54,17.89 -5.71,22.92 -1.23,1.2 -5.26,2.81 -9.04,1.5 -1.87,-0.65 -16.22,-9.03 -19.94,-9.47 -2.51,-0.3 0.33,-3.41 1.25,-4.3 2.57,-2.5 9.63,-0.83 14.54,-3.45 2.63,-1.41 4.67,-2.99 5.97,-4.12 0.86,-0.75 1.97,0.07 1.99,1.45 z"
   id="path10"
   inkscape:connector-curvature="0" />
	</g>
	<path
   style="fill:#ffecb3"
   d="m 95.22,41.56 c 0.7,-3.37 -1.94,-6.53 -5.38,-6.39 -3.63,0.15 -8.41,0.79 -12.94,2.76 -5.59,2.44 -10.08,8.69 -8.3,15.27 1.12,4.13 5.55,7.76 11.83,6.64 9.52,-1.69 12.88,-9.11 14.79,-18.28 z"
   id="path14"
   inkscape:connector-curvature="0" />
	<ellipse
   style="fill:#212121"
   cx="42.98"
   cy="50.049999"
   rx="5.7399998"
   ry="6"
   id="ellipse16" />
	<ellipse
   style="fill:#212121"
   cx="80.349998"
   cy="50.049999"
   rx="5.7399998"
   ry="6"
   id="ellipse18" />
	<g
   id="g26">
		<path
   style="fill:#281010"
   d="m 28.58,72.49 c -0.02,1.19 0.14,2.73 0.7,4.58 0,0 -6.19,1.39 -12.34,-10.54 -0.24,-0.46 -0.7,-0.81 -1.22,-0.77 -1.02,0.08 -1.61,1.21 -1.92,2.2 -2.53,8.23 0.72,17.89 7.7,22.92 1.67,1.2 7.1,2.81 12.2,1.5 2.53,-0.65 21.9,-9.03 26.92,-9.47 3.39,-0.3 -0.45,-3.41 -1.68,-4.3 -3.47,-2.5 -13,-0.83 -19.63,-3.45 -3.56,-1.41 -6.31,-2.99 -8.05,-4.12 -1.15,-0.75 -2.65,0.07 -2.68,1.45 z"
   id="path20"
   inkscape:connector-curvature="0" />
		<path
   style="fill:#394d57"
   d="m 22.47,80.74 c 3.29,2.13 7.41,2.95 11.27,2.24 0,0 -3.02,-2.33 -4.56,-6.32 0.04,0.14 0.06,0.26 0.11,0.4 0,0 -6.19,1.39 -12.34,-10.54 -0.19,-0.36 -0.52,-0.65 -0.9,-0.74 -0.39,7.05 3.13,12.83 6.42,14.96 z"
   id="path22"
   inkscape:connector-curvature="0" />
		<path
   style="fill:#394d57"
   d="m 58.95,78.61 c -3.47,-2.5 -13,-0.83 -19.63,-3.45 -3.56,-1.41 -6.31,-2.99 -8.05,-4.12 -0.3,-0.2 -0.63,-0.28 -0.95,-0.28 2.89,1.35 5.44,8.55 13.27,8.57 3.36,0.01 6.72,-0.46 10.08,-0.35 2.86,0.09 5.83,0.73 8.11,2.38 -0.58,-1.02 -2.13,-2.25 -2.83,-2.75 z"
   id="path24"
   inkscape:connector-curvature="0" />
	</g>
	<g
   id="g30">
		<path
   style="fill:#f44336"
   d="m 101.29,56.52 c -11.39,6.52 -19.52,9.52 -30.02,6.04 -5.51,-1.83 -7.54,-5.03 -7.54,-5.03 0,0 -7.31,4.59 -7.31,9.93 0,5.34 2.81,8.56 6.81,10.26 4.97,2.11 19.86,5.5 39.23,1.94 14.99,-2.76 27.65,-12.1 20.59,-23.06 -3.94,-6.14 -12.69,-5.27 -21.76,-0.08 z"
   id="path28"
   inkscape:connector-curvature="0" />
	</g>
	<path
   style="fill:#b31b1b"
   d="m 66.1,97.91 c -13.88,-0.55 -25.88,10.84 -26.62,10.63 -0.37,-0.1 -0.65,-0.45 -0.67,-0.83 -0.01,-0.2 -1.14,0.11 -1.29,0.23 -1.56,1.24 -1.65,2.38 -1.53,2.5 0.46,0.46 1.03,1.44 4.44,0.12 0.68,-0.26 14.5,-8.25 26.47,-7.34 10.13,0.77 17.15,5.73 18.29,6.54 0.53,0.38 0.83,0.58 1.2,0.69 0.37,0.11 1.65,0.07 1.77,-0.75 0.06,-0.4 -8.88,-11.27 -22.06,-11.79 z"
   id="path32"
   inkscape:connector-curvature="0" />
	<path
   style="fill:#cc2d2d"
   d="m 41.22,104.48 c 2.03,-3.43 9.77,-14.08 23.99,-13.87 12.15,0.18 18.74,13.15 19.89,15.38 0.34,0.66 2.21,5.4 3.07,3.89 0.26,-0.46 0.22,-1.03 0.12,-1.55 C 87.16,102.7 79.84,86.35 65,86.35 c -11.98,0 -21.15,5.91 -27.08,17.08 -0.9,1.69 -1.91,3.87 -2.15,5.77 -0.13,1.02 0.34,1.64 0.97,1.64 1.23,-0.01 3.57,-4.82 4.48,-6.36 z"
   id="path34"
   inkscape:connector-curvature="0" />
	<path
   style="fill:#ff8a66"
   d="m 57.22,112.36 c 0.6,-2.65 3.63,-5.3 8.92,-5.3 4.05,0 6.59,3.78 6.59,5.79 0,1.89 -1.29,1.94 -2.57,1.22 -1.37,-0.77 -2.55,-1.54 -4.43,-1.54 -2.93,0 -3.88,1.63 -6.16,2 -1.56,0.24 -2.66,-0.84 -2.35,-2.17 z"
   id="path36"
   inkscape:connector-curvature="0" />
	<g
   id="g42">
		<path
   style="fill:#281010"
   d="m 41.4,36.92 c 2.44,2.14 5.24,3.92 8.3,5 1.85,0.65 4.13,0.93 5.59,-0.38 2.21,-1.98 0.94,-8.5 0.34,-11.05 -0.77,-3.3 -2.21,-6.46 -4.23,-9.18 -0.53,-0.71 -1.64,-0.52 -1.92,0.32 l -1.55,4.73 c -3.85,-8.3 -8.17,-11.79 -10.59,-13.18 -0.77,-0.44 -1.69,0.22 -1.51,1.08 0.26,1.27 0.58,2.88 0.74,3.93 -4.3,-3.33 -9.73,-5.2 -15.18,-5.21 0.65,0.01 3.43,9.42 20.01,23.94 z"
   id="path38"
   inkscape:connector-curvature="0" />
		<path
   style="fill:#394d57"
   d="m 38.63,24.84 -0.84,-5.79 c 0,0 4.6,2.58 10.93,12.7 l 0.93,-5.72 c 3.77,3.63 6.16,10.67 5.49,15.62 0.01,0 0,0 0.01,0.01 2.4,-1.84 1.09,-8.56 0.48,-11.17 -0.77,-3.3 -2.21,-6.44 -4.22,-9.16 -0.53,-0.72 -1.66,-0.52 -1.94,0.33 l -1.54,4.71 C 44.08,18.08 39.78,14.6 37.35,13.2 c -0.77,-0.44 -1.7,0.22 -1.52,1.09 0.26,1.27 0.58,2.87 0.74,3.92 -4.3,-3.33 -9.73,-5.2 -15.18,-5.21 0,-0.01 6.81,0.96 17.24,11.84 z"
   id="path40"
   inkscape:connector-curvature="0" />
	</g>
	<g
   id="g48">
		<path
   style="fill:#281010"
   d="m 80.47,37.21 c -2.09,2.03 -4.49,3.71 -7.11,4.74 -1.59,0.62 -3.54,0.88 -4.79,-0.36 -1.89,-1.88 -0.8,-8.05 -0.29,-10.47 0.66,-3.13 1.89,-6.11 3.63,-8.7 0.45,-0.67 1.4,-0.49 1.64,0.31 l 1.33,4.48 c 3.3,-7.86 6.99,-11.16 9.07,-12.48 0.66,-0.42 1.45,0.21 1.3,1.03 -0.22,1.2 -0.5,2.73 -0.63,3.73 3.69,-3.16 8.33,-4.92 13,-4.93 -0.57,-0.02 -2.95,8.9 -17.15,22.65 z"
   id="path44"
   inkscape:connector-curvature="0" />
		<path
   style="fill:#394d57"
   d="m 82.85,25.77 0.72,-5.49 c 0,0 -3.94,2.45 -9.36,12.03 l -0.8,-5.42 c -3.23,3.44 -5.28,10.11 -4.7,14.79 -0.01,0 0,0 -0.01,0.01 -2.06,-1.74 -0.93,-8.11 -0.41,-10.58 0.66,-3.12 1.89,-6.1 3.61,-8.68 0.45,-0.68 1.42,-0.49 1.66,0.31 l 1.32,4.46 c 3.29,-7.85 6.98,-11.15 9.06,-12.48 0.66,-0.42 1.46,0.21 1.3,1.03 -0.22,1.2 -0.49,2.72 -0.63,3.71 3.69,-3.16 8.33,-4.92 13,-4.93 0,0.01 -5.84,0.94 -14.76,11.24 z"
   id="path46"
   inkscape:connector-curvature="0" />
	</g>
	<path
   style="fill:#ff8a66"
   d="m 106.13,57.49 c 5.1,-2.88 8.7,-2.1 9.54,-0.45 1.42,2.79 -1.8,5.44 -5.28,6.31 -4.77,1.19 -10.48,2.55 -11.11,0.37 -0.64,-2.18 3.44,-4.31 6.85,-6.23 z"
   id="path50"
   inkscape:connector-curvature="0" />
	<path
   style="fill:#b71c1c"
   d="m 125.07,62.76 c 0,-3.04 -2.01,-6.16 -2.01,-6.16 0,0 0.78,4.12 -2.57,9.15 -2.8,4.2 -9.49,8.28 -18.75,9.98 -5.37,0.99 -10.78,1.49 -16.08,1.49 -10.58,0 -18.09,-1.99 -20.86,-3.17 -2.39,-1.02 -5.47,-2.21 -8.35,-6.05 0.18,5.02 2.93,8.08 6.79,9.73 3.4,1.45 11.46,3.49 22.43,3.49 5.04,0 10.7,-0.43 16.81,-1.56 12.05,-2.22 22.6,-8.69 22.6,-16.85 -0.01,-0.01 -0.01,-0.03 -0.01,-0.05 z"
   id="path52"
   inkscape:connector-curvature="0" />
</g>
</svg>